/* XPM */
static char * disk_xpm[] = {
"18 18 4 1",
" 	c #E5E4E8",
".	c #4D4D4D",
"+	c #A6A64D",
"@	c #D3D3D3",
"                  ",
"                  ",
"  ..............  ",
"  .+.@@@@@@@@.@.  ",
"  .+.@@@@@@@@...  ",
"  .+.@@@@@@@@.+.  ",
"  .+.@@@@@@@@.+.  ",
"  .+.@@@@@@@@.+.  ",
"  .+.@@@@@@@@.+.  ",
"  .++........++.  ",
"  .++++++++++++.  ",
"  .++.........+.  ",
"  .++......@@.+.  ",
"  .++......@@.+.  ",
"  .++......@@.+.  ",
"   .............  ",
"                  ",
"                  "};
