/* XPM */
static const char * exclamation_xpm[] = {
"14 14 4 1",
" 	c None",
". 	c #622222",
"+	c #A64C4C",
"@	c #862C2C",
"      ++      ",
"     ++++     ",
"     ++++     ",
"     ++++     ",
"     ++++     ",
"     ++++     ",
"     ++++     ",
"     @++@     ",
"      ++      ",
"      ..      ",
"      ++      ",
"     ++++     ",
"     ++++     ",
"      ++      "};
