/* XPM */
static char * help_xpm[] = {
"18 18 48 1",
" 	c #E5E4E8",
".	c #B7B7B7",
"+	c #AEAEAE",
"@	c #353535",
"#	c #090909",
"$	c #000000",
"%	c #080808",
"&	c #323232",
"*	c #A6A6A6",
"=	c #8B8B8B",
"-	c #0D0D0D",
";	c #010101",
">	c #838383",
",	c #D7D6D7",
"'	c #0F0F0F",
")	c #020202",
"!	c #898989",
"~	c #B9B9B9",
"{	c #252525",
"]	c #0E0E0E",
"^	c #8F8F8F",
"/	c #575757",
"(	c #797979",
"_	c #808080",
":	c #C9C9C9",
"<	c #5C5C5C",
"[	c #707070",
"}	c #222222",
"|	c #CFCFCF",
"1	c #3E3E3E",
"2	c #161616",
"3	c #BCBCBC",
"4	c #313131",
"5	c #C0C0C0",
"6	c #858585",
"7	c #262626",
"8	c #484848",
"9	c #9B9B9B",
"0	c #929292",
"a	c #606060",
"b	c #676767",
"c	c #DCDCDE",
"d	c #C3C3C3",
"e	c #A8A8A8",
"f	c #ACACAC",
"g	c #B8B8B8",
"h	c #A4A4A4",
"i	c #7F7F7F",
"                  ",
"        ..        ",
"     +@#$$%&*     ",
"    =$$$#-;$$>    ",
"   ,'$)!  ~{$],   ",
"   ^$$/    ($$_   ",
"     :     <$$^   ",
"          [$$}    ",
"        |1$$23    ",
"        4$$}5     ",
"       6$$7       ",
"       8$$9       ",
"       0abc       ",
"       def        ",
"       8$$g       ",
"       8$$g       ",
"       h(i        ",
"                  "};
