/* XPM */
static const char * wrench_xpm[] = {
"18 18 75 1",
" 	c #E5E4E8",
".	c #E4E3E7",
"+	c #E1E0E3",
"@	c #CDCCD0",
"#	c #D5D4D8",
"$	c #EFEEF2",
"%	c #616162",
"&	c #3A3A3A",
"*	c #6C6B6D",
"=	c #E3E2E5",
"-	c #676768",
";	c #2C2C2C",
">	c #59595A",
",	c #DFDDE1",
"'	c #DBDADE",
")	c #434343",
"!	c #393838",
"~	c #464546",
"{	c #3D3B3B",
"]	c #DDDCDF",
"^	c #EDECF0",
"/	c #949395",
"(	c #CFCED1",
"_	c #D9D8DC",
":	c #444445",
"<	c #383737",
"[	c #D1D0D4",
"}	c #E0DEE2",
"|	c #DFDEE2",
"1	c #878789",
"2	c #303030",
"3	c #C1C0C3",
"4	c #EBEAEF",
"5	c #686869",
"6	c #353535",
"7	c #333333",
"8	c #3C3C3C",
"9	c #4C4B4B",
"0	c #494848",
"a	c #393939",
"b	c #E2E1E5",
"c	c #343434",
"d	c #424242",
"e	c #D5D4D7",
"f	c #E6E5E9",
"g	c #EBE9ED",
"h	c #626263",
"i	c #383838",
"j	c #CDCCCF",
"k	c #D3D2D6",
"l	c #D2D2D5",
"m	c #DBDADD",
"n	c #E5E4E9",
"o	c #E6E4E8",
"p	c #6D6D6E",
"q	c #434344",
"r	c #CECDD0",
"s	c #E7E6EA",
"t	c #5C5C5C",
"u	c #323232",
"v	c #D4D3D7",
"w	c #E9E8EC",
"x	c #6F6F70",
"y	c #474747",
"z	c #CECED1",
"A	c #5E5E5F",
"B	c #373737",
"C	c #D2D1D5",
"D	c #CCCBCE",
"E	c #464747",
"F	c #D1D0D3",
"G	c #404040",
"H	c #D0D0D3",
"I	c #CBCACE",
"J	c #BFBEC1",
"                  ",
"        ..+@#     ",
"        .$%&*     ",
"        =-;>,.    ",
"        ')!'  .   ",
"        '~{]. ^/( ",
"      . _:<[}|123 ",
"       45678907a# ",
"      b5cc7&88def ",
"    .gh6icdjklmn. ",
"    opc6cqr       ",
"  .stuccdv .      ",
"  wxc72yzf        ",
" .A6Bu&C.         ",
" D&66EFs          ",
" [G7GH.           ",
" fIJvs            ",
"                  "};
